<svg width="128" height="128" viewBox="0 0 128 128" fill="none" xmlns="http://www.w3.org/2000/svg">
<rect width="128" height="128" fill="black"/>
<line x1="18" y1="104.5" x2="52" y2="104.5" stroke="#FFD600" stroke-width="3"/>
<path d="M70 5.50162L64.4137 5.50162L55.4176 30.8557L70 64.5L91.5 64.5L70 5.50162Z" fill="#FFD600"/>
<path d="M46.4216 56.2097L55.4176 30.8557M55.4176 30.8557L64.4137 5.50162L70 5.50162L91.5 64.5L70 64.5L55.4176 30.8557Z" stroke="#FFD600" stroke-width="3"/>
<path d="M77 83L85 104.5H106L98 83H77Z" fill="#FFD600"/>
<path d="M67 104.5H85M114 104.5H106M85 104.5L77 83H98L106 104.5M85 104.5H106" stroke="#FFD600" stroke-width="3"/>
<path d="M21.917 81.5473C17.0058 82.6841 16.3919 86.1109 21.917 88.8751C26.6705 91.2533 39.4409 92.4699 45.9501 87.9463C48.0093 86.5152 50.0938 83.8623 48.679 81.7918C47.3841 79.897 43.613 77.8617 34.7971 76.8085C30.4998 76.2401 23.3934 71.0831 39.1093 65.6266C58.7542 58.806 55.0708 75.8575 43.4066 72.4472" stroke="white" stroke-width="3" stroke-linecap="round"/>
</svg>
