<svg width="128" height="128" viewBox="0 0 128 128" fill="none" xmlns="http://www.w3.org/2000/svg">
<g clip-path="url(#clip0_18_17)">
<rect width="128" height="128" rx="25" fill="#56EE6B"/>
<path d="M99.5 85.5C97.9548 83.9632 94.6827 80.2182 89.5 78.5C84.3174 76.7818 81.2276 83.7818 79.5 85.5C77.7725 87.2182 65.1378 80.7318 56.5 73C49.5898 66.8145 42.3483 54.3591 43.5 53.5C49.0282 50.7509 50.5759 46.2182 50 44.5C49.1184 42.649 49.1753 42.5211 48 40C45.7206 35.1106 42 32.0351 42 31.5817C42 30.8944 35.7276 30.7226 34 31.5817C32.2725 32.4408 26.3637 36.7682 25.5 44.5C24.1112 56.9321 35.9072 76.05 48 85.5C60.0928 94.95 73.0434 101.359 86 100.5C98.9566 99.6409 100.364 86.3591 99.5 85.5Z" fill="white"/>
</g>
<defs>
<clipPath id="clip0_18_17">
<rect width="128" height="128" fill="white"/>
</clipPath>
</defs>
</svg>
