<svg width="333" height="333" viewBox="0 0 333 333" fill="none" xmlns="http://www.w3.org/2000/svg">
<path d="M298.473 103.505L296.625 104.271L298.473 103.505C292.282 88.5599 283.049 74.4994 270.775 62.2258C245.862 37.3125 213.204 24.8549 180.552 24.8549C174.24 24.8549 169.124 19.7389 169.124 13.4275C169.124 7.11613 174.24 2.00011 180.552 2.00011C219.056 2.00011 257.555 16.6887 286.933 46.0665C301.285 60.4184 312.154 77.0458 319.533 94.8602C327.177 113.316 331 132.913 331 152.448C331 158.76 325.884 163.876 319.572 163.876C313.261 163.876 308.145 158.76 308.145 152.448C308.145 135.734 304.922 119.076 298.473 103.505ZM96.1214 148.509L96.1215 148.51C107.342 166.251 120.541 182.705 135.431 197.569C150.295 212.459 166.749 225.658 184.491 236.878L184.491 236.879C191.584 241.363 200.156 241.316 207.198 236.755L207.198 236.755L231.743 220.857C231.743 220.857 231.743 220.857 231.743 220.857C236.45 217.81 241.764 217.235 247.013 219.205L247.715 217.332L247.013 219.205L319.895 246.551L320.598 244.679L319.896 246.551C330.118 250.386 334.159 262.509 328.279 271.711C323.691 278.892 319.102 286.074 314.514 293.256C310.977 298.792 307.441 304.327 303.904 309.862C293.238 326.555 274.102 334.29 254.834 329.691C193.353 315.02 138.014 283.017 94.242 238.773L94.2344 238.765L94.2268 238.758C49.9832 194.986 17.9804 139.647 3.30881 78.1662L1.36344 78.6304L3.30881 78.1661C-1.28971 58.8973 6.44474 39.7624 23.138 29.0962L23.138 29.0962C29.9159 24.7652 36.6939 20.4347 43.4719 16.1042C49.4109 12.3097 55.3498 8.51538 61.2885 4.72076C70.4906 -1.1584 82.613 2.8813 86.4488 13.1042L113.794 85.9876L113.794 85.9878C115.764 91.2363 115.189 96.5503 112.142 101.258L96.2446 125.803L96.2445 125.803C91.6842 132.845 91.6366 141.416 96.1214 148.509ZM248.468 84.5333L249.882 83.1192L248.468 84.5334C257.608 93.6739 264.545 104.297 269.27 115.704C274.121 127.416 276.548 139.921 276.548 152.448C276.548 158.731 271.455 163.823 265.173 163.823C258.891 163.823 253.798 158.73 253.798 152.448C253.798 142.907 251.935 133.345 248.209 124.349C244.672 115.81 239.37 107.754 232.309 100.692C225.246 93.6293 217.19 88.3283 208.652 84.7914C199.656 81.0651 190.093 79.2024 180.552 79.2024C174.27 79.2024 169.177 74.1099 169.177 67.828C169.177 61.5462 174.27 56.453 180.552 56.453C193.079 56.453 205.586 58.8798 217.297 63.7308L218.062 61.8831L217.297 63.7309C228.704 68.4554 239.327 75.3923 248.468 84.5333ZM193.843 139.157C192.003 137.318 189.955 135.944 187.809 135.055C185.538 134.114 183.065 133.654 180.552 133.654C174.241 133.654 169.124 128.537 169.124 122.226C169.124 115.914 174.24 110.798 180.552 110.798C185.896 110.798 191.307 111.862 196.454 113.993C201.457 116.065 206.074 119.071 210.002 122.998C213.929 126.926 216.934 131.543 219.007 136.546C221.138 141.693 222.201 147.104 222.201 152.448C222.201 158.76 217.085 163.876 210.774 163.876C204.463 163.876 199.347 158.76 199.347 152.448C199.347 149.935 198.886 147.462 197.945 145.191C197.057 143.046 195.683 140.997 193.843 139.157Z" fill="white" stroke="black" stroke-width="4"/>
</svg>
