<svg width="128" height="128" viewBox="0 0 128 128" fill="none" xmlns="http://www.w3.org/2000/svg">
<g clip-path="url(#clip0_20_71)">
<rect width="128" height="128" rx="64" fill="#1FABDF"/>
<g filter="url(#filter0_d_20_71)">
<path d="M27.1209 57.5511L81.9427 35.8657C86.1064 34.0134 92.6719 31.27 93.7398 34.4767C94.4337 36.5606 93.7398 35.866 91.6579 47.6745L84.7185 83.1003L83.3306 88.6573C81.9427 93.5197 80.946 95.9298 76.3911 92.1304C73.8235 89.9886 67.5614 85.4695 61.5105 81.0165C59.7364 82.4057 57.6157 84.3493 55.5727 85.8788C53.0371 87.7771 49.2208 91.0914 47.1858 92.4391C46.9815 92.7551 46.7703 92.8981 46.5514 92.8251C44.8859 92.2694 43.7756 75.691 42.3878 68.5132C40.0746 67.8186 35.3136 66.2897 27.8149 63.6508C19.4876 60.7204 20.8754 60.8723 27.1209 57.5511Z" fill="white"/>
<path d="M42.3878 68.5132C40.0746 67.8186 35.3136 66.2897 27.8149 63.6508C19.4876 60.7204 20.8754 60.8723 27.1209 57.5511L81.9427 35.8657C86.1064 34.0134 92.6719 31.27 93.7398 34.4767C94.4337 36.5606 93.7398 35.866 91.6579 47.6745L84.7185 83.1003L83.3306 88.6573C81.9427 93.5197 80.946 95.9298 76.3911 92.1304C73.8235 89.9886 67.5614 85.4695 61.5105 81.0165M42.3878 68.5132L76.3911 47.6745C79.6295 46.2853 81.2488 45.5906 51.4091 73.3755M42.3878 68.5132C43.7756 75.691 44.8859 92.2694 46.5514 92.8251M51.4091 73.3755C50.0212 74.6681 48.6332 93.5197 46.5514 92.8251M51.4091 73.3755C54.0692 75.5057 57.749 78.2483 61.5105 81.0165M46.5514 92.8251C48.3133 91.8836 52.7414 87.9984 55.5727 85.8788C57.6157 84.3493 59.7364 82.4057 61.5105 81.0165" stroke="black" stroke-width="2"/>
</g>
</g>
<defs>
<filter id="filter0_d_20_71" x="16.9996" y="32.0001" width="82.0004" height="70.9995" filterUnits="userSpaceOnUse" color-interpolation-filters="sRGB">
<feFlood flood-opacity="0" result="BackgroundImageFix"/>
<feColorMatrix in="SourceAlpha" type="matrix" values="0 0 0 0 0 0 0 0 0 0 0 0 0 0 0 0 0 0 127 0" result="hardAlpha"/>
<feOffset dy="4"/>
<feGaussianBlur stdDeviation="2"/>
<feComposite in2="hardAlpha" operator="out"/>
<feColorMatrix type="matrix" values="0 0 0 0 0 0 0 0 0 0 0 0 0 0 0 0 0 0 0.25 0"/>
<feBlend mode="normal" in2="BackgroundImageFix" result="effect1_dropShadow_20_71"/>
<feBlend mode="normal" in="SourceGraphic" in2="effect1_dropShadow_20_71" result="shape"/>
</filter>
<clipPath id="clip0_20_71">
<rect width="128" height="128" fill="white"/>
</clipPath>
</defs>
</svg>
