<svg width="333" height="333" viewBox="0 0 333 333" fill="none" xmlns="http://www.w3.org/2000/svg">
<path fill-rule="evenodd" clip-rule="evenodd" d="M180.552 26.8549C173.136 26.8549 167.124 20.8435 167.124 13.4275C167.124 6.01156 173.136 0.000108295 180.552 0.000108295C219.565 0.000108295 258.58 14.8844 288.347 44.6523C302.89 59.1949 313.904 76.0443 321.381 94.0948C329.126 112.795 333 132.652 333 152.448C333 159.864 326.988 165.876 319.572 165.876C312.156 165.876 306.145 159.864 306.145 152.448C306.145 135.99 302.971 119.593 296.625 104.271C290.534 89.5664 281.448 75.7267 269.361 63.64C244.838 39.1169 212.695 26.8549 180.552 26.8549ZM136.845 196.155C122.058 181.394 108.953 165.056 97.8118 147.441C93.744 141.007 93.787 133.277 97.9233 126.89L113.821 102.345C117.212 97.1052 117.86 91.1273 115.667 85.285L88.3214 12.4017C84.0387 0.987696 70.4857 -3.52862 60.2117 3.03538C47.496 11.1603 34.7775 19.2852 22.0611 27.4108C4.65047 38.5355 -3.43283 58.5329 1.36344 78.6304C16.1249 140.488 48.3211 196.155 92.8202 240.18C136.845 284.68 192.512 316.876 254.37 331.637C274.467 336.433 294.465 328.35 305.59 310.939C313.714 298.222 321.839 285.504 329.964 272.788C336.529 262.514 332.012 248.961 320.598 244.679L247.715 217.332C241.872 215.14 235.895 215.787 230.656 219.179L206.111 235.077C199.723 239.213 191.994 239.256 185.56 235.188C167.944 224.047 151.605 210.942 136.845 196.155ZM180.552 135.654C182.823 135.654 185.034 136.07 187.044 136.903C188.931 137.684 190.762 138.905 192.429 140.572C194.096 142.238 195.316 144.07 196.098 145.957C196.93 147.966 197.347 150.177 197.347 152.448C197.347 159.864 203.358 165.876 210.774 165.876C218.19 165.876 224.201 159.864 224.201 152.448C224.201 146.839 223.086 141.168 220.855 135.781C218.687 130.548 215.538 125.706 211.416 121.584C207.294 117.462 202.453 114.313 197.219 112.145C191.832 109.914 186.161 108.798 180.552 108.798C173.136 108.798 167.124 114.81 167.124 122.226C167.124 129.642 173.136 135.654 180.552 135.654ZM180.552 81.2024C189.833 81.2024 199.136 83.0145 207.886 86.6392C216.182 90.0753 224.017 95.2287 230.894 102.106C237.771 108.983 242.925 116.819 246.361 125.114C249.986 133.865 251.798 143.167 251.798 152.448C251.798 159.835 257.786 165.823 265.173 165.823C272.559 165.823 278.548 159.835 278.548 152.448C278.548 139.663 276.071 126.897 271.118 114.939C266.296 103.297 259.214 92.4512 249.882 83.1192C240.55 73.7865 229.705 66.7048 218.062 61.8831C206.104 56.9297 193.337 54.453 180.552 54.453C173.166 54.453 167.177 60.4416 167.177 67.828C167.177 75.2145 173.165 81.2024 180.552 81.2024Z" fill="#FF0000"/>
</svg>
