<svg width="128" height="128" viewBox="0 0 128 128" fill="none" xmlns="http://www.w3.org/2000/svg">
<g clip-path="url(#clip0_18_10)">
<rect width="128" height="128" rx="25" fill="#56EE6B"/>
<path d="M27 86L18 102L40 98.5C45 101.5 58.3778 104.308 65.5 103.633C102.776 100.097 109.427 68.6328 103.5 51.1328C95.1 26.3328 71.3333 22.1328 60.5 23.1328C51 24.1328 36.2 28.3328 27 43.1328C17.8 57.9328 23.5 79 27 86Z" stroke="white" stroke-width="5"/>
<path d="M83.9418 73.841C83.0814 72.9527 79.5885 72.2332 76.7024 71.2401C73.8163 70.247 72.0957 74.2928 71.1336 75.2859C70.1716 76.279 63.1356 72.53 58.3254 68.0612C54.4773 64.4862 50.4447 57.2873 51.086 56.7908C54.1645 55.2019 55.0264 52.5821 54.7057 51.589C54.2148 50.5192 54.2465 50.4453 53.592 48.9882C52.3226 46.1622 51.086 42.3146 51.086 42.0525C51.086 41.6553 46.7577 43.6261 45.7957 44.1226C44.8336 44.6191 41.5432 47.1203 41.0622 51.589C40.2888 58.7744 46.8577 69.824 53.592 75.2859C60.3262 80.7477 67.5381 84.452 74.7534 83.9555C81.9686 83.4589 84.4229 74.3375 83.9418 73.841Z" stroke="white" stroke-width="4"/>
</g>
<defs>
<clipPath id="clip0_18_10">
<rect width="128" height="128" fill="white"/>
</clipPath>
</defs>
</svg>
